# Blender 4.5.3 LTS
# www.blender.org
mtllib Ventana.mtl
g Office_Window_Mesh
v -121.919983 125.729988 1.905020
v -121.919983 3.810013 1.905029
v 121.919983 3.810013 1.905029
v 121.919983 125.730003 1.905020
v 121.919983 3.810013 -1.905029
v 121.919983 125.730003 -1.905039
v -121.919983 125.729988 -1.905039
v -121.919983 3.810013 -1.905029
v -115.570007 10.159988 1.905028
v -115.570007 119.380020 1.905020
v 115.569885 119.380035 1.905020
v 115.569946 10.159996 1.905028
v -115.570007 10.159988 -1.905030
v -115.570007 119.380020 -1.905038
v 115.569946 10.159996 -1.905030
v 115.569885 119.380035 -1.905038
v -114.070007 11.659988 0.266723
v -114.070007 117.879959 0.266715
v 114.069885 117.879959 0.266715
v 114.069946 11.659996 0.266723
v -114.070007 11.659988 -0.266969
v -114.070007 117.879959 -0.266977
v 114.069946 11.659996 -0.266969
v 114.069885 117.879959 -0.266977
v 125.729988 129.539993 3.186513
v 125.729988 129.539993 -3.186533
v 121.919983 125.730003 3.186513
v 121.919983 125.730003 -3.186532
v 125.729988 -0.000000 -3.186523
v 125.729988 0.000000 3.186523
v 121.919983 3.810013 3.186523
v 121.919983 3.810013 -3.186523
v -125.730003 129.539993 3.186513
v -125.730003 129.539993 -3.186533
v -121.919998 125.730003 3.186513
v -121.919998 125.730003 -3.186532
v -125.730003 -0.000000 -3.186523
v -125.730003 0.000000 3.186523
v -121.919998 3.810013 3.186523
v -121.919998 3.810013 -3.186523
v -114.070007 11.659988 0.266723
v 114.069946 11.659996 0.266723
v 114.069885 117.879959 0.266715
v -114.070007 117.879959 0.266715
v -114.070007 117.879959 -0.266977
v 114.069885 117.879959 -0.266977
v 114.069946 11.659996 -0.266969
v -114.070007 11.659988 -0.266969
vn 1.0000 -0.0000 -0.0000
vn -0.0000 1.0000 -0.0000
vn -1.0000 -0.0000 -0.0000
vn -0.0000 -1.0000 -0.0000
vn -0.0000 -0.0000 1.0000
vn -0.0000 -0.0000 -1.0000
vn 0.7376 -0.0000 0.6753
vn -0.0000 -0.7375 0.6753
vn -0.7376 -0.0000 0.6753
vn -0.0000 0.7376 0.6753
vn 0.7375 -0.0000 -0.6753
vn -0.0000 0.7375 -0.6753
vn -0.7375 -0.0000 -0.6753
vn -0.0000 -0.7375 -0.6754
vt 0.609625 0.433241
vt 0.623121 0.001376
vt 0.623121 0.433241
vt 0.309578 0.866359
vt 0.323074 0.002628
vt 0.323074 0.866359
vt 0.512674 0.002027
vt 0.499178 0.433893
vt 0.499178 0.002027
vt 0.308347 0.002628
vt 0.294851 0.866360
vt 0.294851 0.002628
vt 0.537835 0.411135
vt 0.560328 0.001762
vt 0.560328 0.433628
vt 0.221624 0.867002
vt 0.199131 0.025762
vt 0.221624 0.003269
vt 0.475248 0.000832
vt 0.497741 0.410206
vt 0.475248 0.432699
vt 0.269484 0.025121
vt 0.246991 0.866361
vt 0.246991 0.002628
vt 0.608188 0.432365
vt 0.585695 0.022992
vt 0.608188 0.000499
vt 0.270921 0.844509
vt 0.293414 0.003269
vt 0.293414 0.867001
vt 0.584258 0.024082
vt 0.561765 0.433454
vt 0.561765 0.001589
vt 0.197694 0.025121
vt 0.175201 0.866361
vt 0.175201 0.002628
vt 0.347337 0.473416
vt 0.340871 0.009095
vt 0.347337 0.002629
vt 0.009531 0.990524
vt 0.015997 0.000673
vt 0.015997 0.996990
vt 0.338133 0.007729
vt 0.331667 0.472052
vt 0.331667 0.001263
vt 0.006793 0.009638
vt 0.000327 0.999501
vt 0.000327 0.003172
vt 0.359279 0.465059
vt 0.365744 0.000759
vt 0.365744 0.471525
vt 0.018735 0.990491
vt 0.025200 0.000671
vt 0.025200 0.996957
vt 0.350075 0.001271
vt 0.356540 0.465577
vt 0.350075 0.472042
vt 0.034404 0.009636
vt 0.027938 0.999450
vt 0.027938 0.003171
vt 0.329876 0.809516
vt 0.327985 0.001435
vt 0.329876 0.001435
vt 0.648281 0.002710
vt 0.650172 0.378932
vt 0.648281 0.378932
vt 0.324304 0.003276
vt 0.326194 0.811380
vt 0.324304 0.811380
vt 0.653853 0.378290
vt 0.651963 0.002089
vt 0.653853 0.002089
vt 0.368483 0.460371
vt 0.391057 0.001513
vt 0.391057 0.460371
vt 0.124269 0.014368
vt 0.110773 0.891595
vt 0.110773 0.000872
vt 0.459291 0.448435
vt 0.445795 0.003076
vt 0.459291 0.016571
vt 0.431069 0.461931
vt 0.444565 0.016571
vt 0.444565 0.448436
vt 0.513904 0.002125
vt 0.536479 0.433990
vt 0.513904 0.433990
vt 0.059717 0.891597
vt 0.037142 0.000872
vt 0.059717 0.000872
vt 0.392413 0.001704
vt 0.414987 0.460560
vt 0.392413 0.460560
vt 0.474017 0.001649
vt 0.460522 0.447008
vt 0.460522 0.015145
vt 0.245636 0.866446
vt 0.223061 0.002712
vt 0.245636 0.002712
vt 0.107702 0.892235
vt 0.094206 0.015007
vt 0.107702 0.001511
vt 0.074568 0.878100
vt 0.061072 0.000872
vt 0.074568 0.014368
vt 0.149915 0.891595
vt 0.127340 0.000872
vt 0.149915 0.000872
vt 0.416343 0.015143
vt 0.429839 0.460503
vt 0.416343 0.447007
vt 0.624351 0.433816
vt 0.646926 0.001953
vt 0.646926 0.433816
vt 0.173845 0.866447
vt 0.151271 0.002712
vt 0.173845 0.002712
vt 0.091135 0.892235
vt 0.077639 0.015007
vt 0.091135 0.001511
vt 0.437539 0.736349
vt 0.992911 0.994925
vt 0.437539 0.994925
vt 0.991201 0.466426
vt 0.435829 0.725002
vt 0.435829 0.466426
vt 0.609625 0.001376
vt 0.309578 0.002628
vt 0.512674 0.433893
vt 0.308347 0.866360
vt 0.537835 0.024255
vt 0.199131 0.844509
vt 0.497741 0.023325
vt 0.269484 0.843868
vt 0.585695 0.409872
vt 0.270921 0.025762
vt 0.584258 0.410961
vt 0.197694 0.843868
vt 0.340871 0.466951
vt 0.009531 0.007138
vt 0.338133 0.465586
vt 0.006792 0.993035
vt 0.359279 0.007225
vt 0.018735 0.007137
vt 0.356540 0.007736
vt 0.034404 0.992985
vt 0.327985 0.809516
vt 0.650172 0.002710
vt 0.326194 0.003276
vt 0.651963 0.378290
vt 0.368483 0.001513
vt 0.124269 0.878099
vt 0.445795 0.461931
vt 0.431069 0.003076
vt 0.536479 0.002125
vt 0.037142 0.891597
vt 0.414987 0.001704
vt 0.474017 0.460504
vt 0.223061 0.866446
vt 0.094206 0.878739
vt 0.061072 0.891596
vt 0.127340 0.891595
vt 0.429839 0.001647
vt 0.624351 0.001953
vt 0.151271 0.866447
vt 0.077639 0.878739
vt 0.992911 0.736349
vt 0.991201 0.725003
s 1
g off
g Office_Window_GS_Office_WindowSG.002
usemtl GS_Office_WindowSG.002
f 4/1/1 5/2/1 6/3/1
s 2
f 1/4/2 6/5/2 7/6/2
s 1
f 2/7/3 7/8/3 8/9/3
s 2
f 3/10/4 8/11/4 5/12/4
s 4
f 9/13/5 1/14/5 2/15/5
f 1/16/5 11/17/5 4/18/5
f 4/19/5 12/20/5 3/21/5
f 12/22/5 2/23/5 3/24/5
f 7/25/6 13/26/6 8/27/6
f 13/28/6 5/29/6 8/30/6
f 15/31/6 6/32/6 5/33/6
f 16/34/6 7/35/6 6/36/6
s 1
f 9/37/7 18/38/7 10/39/7
s 2
f 18/40/8 11/41/8 10/42/8
s 1
f 19/43/9 12/44/9 11/45/9
s 2
f 20/46/10 9/47/10 12/48/10
s 1
f 22/49/11 13/50/11 14/51/11
s 2
f 21/52/12 15/53/12 13/54/12
s 1
f 15/55/13 24/56/13 16/57/13
s 2
f 24/58/14 14/59/14 16/60/14
s 4
f 18/61/4 24/62/4 19/63/4
s 8
f 17/64/1 22/65/1 18/66/1
s 4
f 20/67/2 21/68/2 17/69/2
s 8
f 19/70/3 23/71/3 20/72/3
s 1
f 25/73/1 29/74/1 26/75/1
s 2
f 31/76/5 38/77/5 30/78/5
f 31/79/5 25/80/5 27/81/5
f 26/82/6 32/83/6 28/84/6
s 1
f 32/85/3 27/86/3 28/87/3
s 4
f 34/88/2 25/89/2 26/90/2
s 1
f 37/91/3 33/92/3 34/93/3
s 2
f 33/94/5 39/95/5 35/96/5
s 4
f 35/97/4 28/98/4 27/99/4
s 2
f 33/100/5 27/101/5 25/102/5
f 36/103/6 26/104/6 28/105/6
s 4
f 38/106/4 29/107/4 30/108/4
s 2
f 40/109/6 34/110/6 36/111/6
s 1
f 35/112/1 40/113/1 36/114/1
s 4
f 40/115/2 31/116/2 32/117/2
s 2
f 37/118/6 32/119/6 29/120/6
s 1
f 41/121/5 43/122/5 44/123/5
f 46/124/6 48/125/6 45/126/6
f 4/1/1 3/127/1 5/2/1
s 2
f 1/4/2 4/128/2 6/5/2
s 1
f 2/7/3 1/129/3 7/8/3
s 2
f 3/10/4 2/130/4 8/11/4
s 4
f 9/13/5 10/131/5 1/14/5
f 1/16/5 10/132/5 11/17/5
f 4/19/5 11/133/5 12/20/5
f 12/22/5 9/134/5 2/23/5
f 7/25/6 14/135/6 13/26/6
f 13/28/6 15/136/6 5/29/6
f 15/31/6 16/137/6 6/32/6
f 16/34/6 14/138/6 7/35/6
s 1
f 9/37/7 17/139/7 18/38/7
s 2
f 18/40/8 19/140/8 11/41/8
s 1
f 19/43/9 20/141/9 12/44/9
s 2
f 20/46/10 17/142/10 9/47/10
s 1
f 22/49/11 21/143/11 13/50/11
s 2
f 21/52/12 23/144/12 15/53/12
s 1
f 15/55/13 23/145/13 24/56/13
s 2
f 24/58/14 22/146/14 14/59/14
s 4
f 18/61/4 22/147/4 24/62/4
s 8
f 17/64/1 21/148/1 22/65/1
s 4
f 20/67/2 23/149/2 21/68/2
s 8
f 19/70/3 24/150/3 23/71/3
s 1
f 25/73/1 30/151/1 29/74/1
s 2
f 31/76/5 39/152/5 38/77/5
f 31/79/5 30/153/5 25/80/5
f 26/82/6 29/154/6 32/83/6
s 1
f 32/85/3 31/155/3 27/86/3
s 4
f 34/88/2 33/156/2 25/89/2
s 1
f 37/91/3 38/157/3 33/92/3
s 2
f 33/94/5 38/158/5 39/95/5
s 4
f 35/97/4 36/159/4 28/98/4
s 2
f 33/100/5 35/160/5 27/101/5
f 36/103/6 34/161/6 26/104/6
s 4
f 38/106/4 37/162/4 29/107/4
s 2
f 40/109/6 37/163/6 34/110/6
s 1
f 35/112/1 39/164/1 40/113/1
s 4
f 40/115/2 39/165/2 31/116/2
s 2
f 37/118/6 40/166/6 32/119/6
s 1
f 41/121/5 42/167/5 43/122/5
f 46/124/6 47/168/6 48/125/6
